<svg fill="none" xmlns="http://www.w3.org/2000/svg" viewBox="0 0 119 29" width="120" height="30"><path d="M5.648 11.299H0v5.648h5.648V11.3ZM11.297 5.652H5.648v5.649h5.649V5.652ZM11.297 16.947H5.648v5.649h5.649v-5.649ZM33.886 16.947h5.649V11.3h-5.648v5.648Z" fill="#FFF"></path><path d="M28.238 22.594h5.649v-5.649h-5.649v5.649ZM28.239 11.299h5.648V5.65H28.24V11.3ZM16.943 0h-5.648v5.648h5.648V0ZM16.943 22.594h-5.648v5.648h5.648v-5.648ZM28.242 0h-5.649v5.648h5.649V0ZM28.242 22.594h-5.649v5.648h5.649v-5.648ZM50.834 14.332c0-3.479 2.417-5.94 5.692-5.94 2.546 0 4.854 1.423 5.238 4.155h-2.302c-.272-1.175-1.355-2.146-2.936-2.146-1.993 0-3.411 1.672-3.411 3.93 0 2.168 1.31 3.795 3.432 3.795 1.559 0 2.53-.769 2.958-1.988h2.304c-.406 2.436-2.461 3.997-5.262 3.997-3.476 0-5.713-2.484-5.713-5.803ZM63.321 14.264c0-3.432 2.435-5.868 5.756-5.868s5.804 2.461 5.804 5.868c0 3.407-2.484 5.868-5.804 5.868-3.294.004-5.756-2.48-5.756-5.868Zm9.281 0c0-2.122-1.422-3.861-3.522-3.861-2.1 0-3.477 1.739-3.477 3.861 0 2.104 1.377 3.863 3.477 3.863 2.1 0 3.523-1.762 3.523-3.863h-.001ZM87.645 3.875v16.034h-1.876l-.202-1.512h-.158c-.565.767-1.672 1.738-3.569 1.738-3.026 0-5.24-2.325-5.24-5.894 0-3.614 2.282-5.85 5.24-5.85 1.74 0 2.913.791 3.501 1.536V3.875h2.304ZM85.34 14.241c0-2.28-1.242-3.84-3.162-3.84-1.942 0-3.275 1.56-3.275 3.84 0 2.325 1.329 3.884 3.275 3.884 1.92 0 3.162-1.558 3.162-3.884ZM100.471 14.848h-8.357c.111 2.009 1.329 3.41 3.322 3.41 1.422 0 2.46-.587 2.823-1.74h2.214c-.475 2.259-2.371 3.614-5.036 3.614-3.253 0-5.579-2.28-5.579-5.757 0-3.681 2.417-5.984 5.488-5.984 2.756 0 5.172 1.829 5.172 5.714-.002.223-.025.45-.047.743Zm-8.334-1.627h6.143c-.022-1.739-1.197-2.958-2.936-2.958-1.784 0-2.982 1.31-3.207 2.958ZM102.825 3.875h2.304v16.034h-2.304V3.875ZM107.561 24.402v-1.739c.392.093.793.146 1.196.158 1.039 0 1.965-.43 2.462-1.626l.496-1.287h-.745l-4.358-11.293h2.393l3.343 8.92h.181l3.136-8.919h2.394l-4.698 12.918c-.315.927-1.128 3.116-4.109 3.116a6.561 6.561 0 0 1-1.691-.248Z" fill="#FFF"></path></svg>